<?xml version="1.0" encoding="UTF-8" standalone="no"?>
<!-- Created with Inkscape (http://www.inkscape.org/) -->

<svg
   version="1.1"
   id="svg69"
   width="1081"
   height="1081"
   viewBox="0 0 1081 1081"
   sodipodi:docname="project we love.svg"
   inkscape:version="1.2 (dc2aedaf03, 2022-05-15)"
   inkscape:export-filename="project we love.png"
   inkscape:export-xdpi="90.933334"
   inkscape:export-ydpi="90.933334"
   xmlns:inkscape="http://www.inkscape.org/namespaces/inkscape"
   xmlns:sodipodi="http://sodipodi.sourceforge.net/DTD/sodipodi-0.dtd"
   xmlns="http://www.w3.org/2000/svg"
   xmlns:svg="http://www.w3.org/2000/svg">
  <defs
     id="defs73">
    <inkscape:path-effect
       effect="skeletal"
       id="path-effect2015"
       is_visible="true"
       lpeversion="1"
       pattern="M 0,0 H 17.35876 V 34.29561 H 0 Z"
       copytype="repeated"
       prop_scale="1"
       scale_y_rel="false"
       spacing="35.9"
       normal_offset="-3.7"
       tang_offset="0"
       prop_units="false"
       vertical_pattern="false"
       hide_knot="false"
       fuse_tolerance="0" />
    <inkscape:path-effect
       effect="skeletal"
       id="path-effect1955"
       is_visible="true"
       lpeversion="1"
       pattern="M 0,0 H 1"
       copytype="single_stretched"
       prop_scale="1"
       scale_y_rel="false"
       spacing="0"
       normal_offset="0"
       tang_offset="0"
       prop_units="false"
       vertical_pattern="false"
       hide_knot="false"
       fuse_tolerance="0" />
    <inkscape:path-effect
       effect="skeletal"
       id="path-effect1906"
       is_visible="true"
       lpeversion="1"
       pattern="M 0,0 H 1"
       copytype="repeated"
       prop_scale="1"
       scale_y_rel="false"
       spacing="0.2"
       normal_offset="0"
       tang_offset="0"
       prop_units="false"
       vertical_pattern="false"
       hide_knot="false"
       fuse_tolerance="0" />
  </defs>
  <sodipodi:namedview
     id="namedview71"
     pagecolor="#1a1a1a"
     bordercolor="#666666"
     borderopacity="1.0"
     inkscape:showpageshadow="2"
     inkscape:pageopacity="0"
     inkscape:pagecheckerboard="0"
     inkscape:deskcolor="#d1d1d1"
     showgrid="false"
     inkscape:zoom="0.43101852"
     inkscape:cx="557.98067"
     inkscape:cy="551.02041"
     inkscape:window-width="1231"
     inkscape:window-height="1149"
     inkscape:window-x="0"
     inkscape:window-y="49"
     inkscape:window-maximized="1"
     inkscape:current-layer="g75" />
  <g
     inkscape:groupmode="layer"
     inkscape:label="Image"
     id="g75">
    <g
       id="g3070">
      <path
         style="fill:#ffffff;fill-opacity:1"
         d="m 521.56327,909.79805 c -0.22596,-0.71393 -0.70575,-16.05692 -1.0662,-34.09554 l -0.65537,-32.7975 6.82915,0.2975 6.82915,0.29749 0.5,13.34979 0.5,13.34978 11.45881,-14.09978 L 557.41762,842 h 7.29119 c 4.01015,0 7.29119,0.26412 7.29119,0.58693 0,0.32282 -5.39015,7.15107 -11.97811,15.17391 -7.39185,9.00181 -11.66132,14.999 -11.15073,15.66307 8.68136,11.29094 25.34937,33.9872 25.77546,35.09759 0.47127,1.2281 -0.76328,1.47589 -7.28963,1.46309 l -7.85699,-0.0154 -10.1702,-13.5225 -10.1702,-13.5225 -2.685,3.52022 c -2.5789,3.38111 -2.67096,3.92593 -2.3298,13.7879 L 534.5,910.5 l -6.26294,0.29805 c -4.46791,0.21263 -6.3807,-0.074 -6.67379,-1 z m -57.99137,-5.81578 c -6.29374,-2.45741 -11.83839,-7.88116 -14.6953,-14.37487 -1.77835,-4.04216 -2.2504,-6.98452 -2.2633,-14.1074 -0.0305,-16.83346 6.13334,-29.5609 17.3867,-35.90122 4.89019,-2.7552 6.38699,-3.09686 13.5,-3.08147 9.05721,0.0196 13.71972,1.88212 19.13805,7.64506 4.37527,4.65355 6.43639,9.15878 7.09078,15.49914 l 0.56109,5.43648 -6.89496,-0.299 L 490.5,864.5 l -0.55477,-4 c -1.06856,-7.70441 -5.13378,-11.77273 -11.76378,-11.77273 -8.4943,0 -14.98216,7.11696 -17.19922,18.86693 -2.30849,12.23452 0.42058,20.97011 7.64362,24.46672 7.68989,3.72261 13.94226,0.69517 17.84253,-8.63948 l 1.39433,-3.33711 6.31865,2.5578 c 3.47525,1.40679 6.41261,2.64429 6.52747,2.75 0.11486,0.10571 -0.82919,2.43265 -2.09788,5.17099 -2.80072,6.04508 -7.69131,11.11392 -13.08876,13.5658 -5.39213,2.44947 -15.47377,2.38212 -21.95029,-0.14665 z M 601.33975,903.625 c -2.28814,-0.74855 -5.56479,-2.36112 -7.28146,-3.58349 -2.96265,-2.1096 -9.02884,-11.26749 -9.04891,-13.6608 -0.008,-0.99214 11.90599,-6.86482 12.49963,-6.16119 0.13015,0.15427 1.01239,1.80481 1.96054,3.66788 0.94815,1.86306 2.87109,4.45056 4.2732,5.75 6.48754,6.01244 21.82402,-0.25875 19.85161,-8.11746 -0.97524,-3.88566 -4.28753,-5.33698 -16.12624,-7.06592 -19.02071,-2.77781 -25.82498,-7.74099 -25.90669,-18.8969 -0.0913,-12.46659 10.05351,-20.78468 25.43857,-20.85798 3.025,-0.0144 7.15136,0.52035 9.1697,1.18838 3.95315,1.3084 11.8303,9.06247 11.8303,11.64546 0,0.94316 -2.24382,2.60492 -5.57913,4.13188 l -5.57913,2.55421 -1.48157,-2.11525 c -3.62005,-5.16834 -12.14507,-6.44046 -17.89827,-2.67081 -3.09589,2.0285 -3.4903,7.94624 -0.63159,9.47618 1.00667,0.53875 7.37914,1.91084 14.16104,3.04909 7.57958,1.27212 13.89133,2.93112 16.38099,4.30563 11.13285,6.14629 12.69508,21.17471 3.15488,30.3495 -6.93605,6.67039 -20.36753,9.89698 -29.18747,7.01159 z M 411.5,889.41769 c -2.2,-0.79276 -4.55566,-1.64431 -5.2348,-1.89232 -0.86652,-0.31644 1.89571,-9.63327 9.2614,-31.23815 5.7729,-16.93297 10.69353,-31.32782 10.93473,-31.98855 0.54196,-1.48462 12.53867,2.29659 12.53867,3.95203 0,0.58691 -3.88593,12.35809 -8.63539,26.1582 -4.74947,13.8001 -9.51578,27.6786 -10.59181,30.8411 -1.07602,3.1625 -2.4776,5.71829 -3.1146,5.67954 -0.63701,-0.0388 -2.9582,-0.71909 -5.1582,-1.51185 z m 262.20277,-4.1149 C 673.43848,884.86125 669.07256,873.7 664.00071,860.5 c -5.07185,-13.2 -9.54891,-24.35455 -9.94902,-24.7879 -0.40011,-0.43334 -4.27766,0.57916 -8.61678,2.25 -4.33911,1.67085 -8.40179,3.0379 -9.02818,3.0379 -1.04051,0 -5.56241,-10.06013 -4.87001,-10.8346 0.42504,-0.47542 48.84701,-19.13523 48.98802,-18.87794 0.0641,0.1169 1.06678,2.76058 2.22826,5.87484 l 2.11177,5.6623 -8.93238,3.3101 C 671.01957,827.95526 667,829.77341 667,830.17505 c 0,0.40164 4.275,11.83305 9.5,25.40315 5.225,13.57009 9.5,24.97751 9.5,25.3498 0,0.3723 -2.34991,1.55331 -5.22203,2.62446 -2.87212,1.07115 -5.53088,2.08379 -5.90836,2.25033 -0.37748,0.16653 -0.90256,-0.0585 -1.16684,-0.5 z M 379,877.36569 c -3.575,-1.97319 -6.63217,-3.70735 -6.79372,-3.85371 -0.16155,-0.14635 -1.45004,-7.63392 -2.86332,-16.63904 -1.41328,-9.00511 -2.6879,-16.50473 -2.83248,-16.6658 -0.14458,-0.16107 -1.82609,0.45259 -3.73669,1.36369 -2.8387,1.35368 -4.27826,3.29848 -7.8738,10.63727 -2.42,4.93939 -4.74292,9.19315 -5.16207,9.45279 -0.41914,0.25964 -3.24351,-0.94766 -6.27637,-2.68289 l -5.5143,-3.15496 15.17088,-29.66152 c 8.34398,-16.31384 15.27725,-29.79542 15.40726,-29.95907 0.45043,-0.567 11.47461,5.21789 11.47461,6.02124 0,0.44389 -2.69059,6.17445 -5.97909,12.73459 l -5.97908,11.92753 9.72908,-4.03759 c 5.351,-2.22068 12.87909,-5.3751 16.72909,-7.00983 l 7,-2.97224 6.75,3.26012 c 3.7125,1.79306 6.74065,3.51068 6.72922,3.81692 -0.0114,0.30625 -7.71318,3.69238 -17.11501,7.52474 -9.40183,3.83235 -17.32586,7.57154 -17.60897,8.3093 -0.2831,0.73776 0.92649,10.77867 2.68799,22.31315 1.76149,11.53448 3.05738,21.39728 2.87974,21.91734 -0.17763,0.52007 -3.24797,-0.66885 -6.82297,-2.64203 z m 333.53243,-9.52477 C 711.22722,862.29898 700,802.45943 700,801.04483 c 0,-0.85767 2.05058,-2.79799 4.55683,-4.31182 l 4.55684,-2.75243 27.44316,22.59329 c 15.09375,12.42631 27.4343,22.89318 27.42345,23.25971 -0.0108,0.36653 -2.53506,2.13681 -5.60938,3.93396 l -5.58966,3.26755 -3.8935,-3.51755 C 746.74631,841.58289 744.50503,840 743.90711,840 c -2.15253,0 -21.91997,12.52411 -21.49899,13.62117 0.23705,0.61772 0.73809,3.17104 1.11344,5.67404 0.6764,4.51054 0.64538,4.57431 -3.49566,7.18844 -6.13786,3.87466 -6.86939,4.00716 -7.49347,1.35727 z m 15.34926,-32.04828 6.99379,-4.20737 -3.69953,-3.16666 C 719.18856,818.15785 715,814.96666 715,816.09442 715,819.17623 719.48601,840 720.14992,840 c 0.40588,0 3.88518,-1.89331 7.73177,-4.20736 z M 760.5,801.16573 c -12.1,-13.49226 -22.13696,-24.85998 -22.30435,-25.2616 -0.59007,-1.41575 22.36894,-21.19759 27.30435,-23.52585 6.53517,-3.08295 10.93537,-2.98983 17.5645,0.37172 7.17323,3.63746 11.10277,9.22193 11.71915,16.65468 0.24971,3.01114 -0.0548,6.93452 -0.67679,8.71864 -1.39933,4.01411 -1.95073,3.64868 13.64314,9.04172 6.7375,2.33013 12.25,4.52578 12.25,4.87924 0,0.86655 -9.64333,8.9552 -10.67941,8.9577 -0.45132,10e-4 -6.60405,-2.08296 -13.67271,-4.63121 l -12.85213,-4.63319 -3.35942,3.38121 -3.35942,3.38121 7.96155,8.87805 c 4.37885,4.88292 7.96154,9.19998 7.96154,9.59346 0,0.39348 -2.1375,2.51771 -4.75,4.72051 l -4.75,4.00509 z m 15.16667,-18.49906 C 781.05246,777.28088 782,775.80516 782,772.80303 c 0,-2.48782 -0.78449,-4.31479 -2.65662,-6.18692 -5.24895,-5.24896 -9.12699,-4.36482 -18.44798,4.20586 l -5.29575,4.86945 5.95018,6.65373 c 3.27259,3.65956 6.36267,6.65399 6.86684,6.65429 0.50416,3.1e-4 3.76666,-2.84944 7.25,-6.33277 z m 47.53557,-36.17862 C 811.48846,737.41962 801.57429,730 801.17074,730 c -0.40354,0 -3.33635,3.38112 -6.51734,7.5136 l -5.78362,7.51359 -4.68489,-3.72875 c -2.57669,-2.05081 -4.79631,-3.78084 -4.93248,-3.84452 -0.5195,-0.24291 31.29752,-40.81966 32.24759,-41.12586 0.55,-0.17725 2.92779,1.36392 5.28398,3.42483 l 4.28398,3.74711 -5.95386,7.58161 -5.95386,7.5816 21.86848,16.83621 21.86848,16.83621 -1.89767,2.58218 c -1.04371,1.42021 -2.93308,3.81431 -4.1986,5.32024 L 844.5,762.97611 Z M 846,701.82921 c -15.675,-8.26897 -28.66312,-15.18893 -28.86249,-15.37768 -0.40634,-0.38469 17.60625,-35.4257 18.95881,-36.88174 1.00027,-1.0768 10.90368,3.23138 10.90368,4.74331 0,0.53418 -2.9674,6.56485 -6.59423,13.40151 -3.62682,6.83665 -6.43932,12.56934 -6.25,12.73931 0.18933,0.16997 3.13257,1.70666 6.54054,3.41485 l 6.19631,3.10582 6.17332,-11.94352 6.17331,-11.94353 4.88037,2.47308 c 2.68421,1.36019 4.88038,2.95164 4.88038,3.53656 0,0.58492 -2.475,5.90208 -5.5,11.81591 -3.025,5.91383 -5.5,11.04703 -5.5,11.40709 0,0.36007 3.13389,2.23288 6.9642,4.16179 l 6.9642,3.50712 6.02805,-11.74455 c 3.31543,-6.4595 6.42966,-12.36216 6.92052,-13.11703 0.72388,-1.11322 1.85855,-0.82988 6.00673,1.5 2.81285,1.57987 5.11472,3.11107 5.11528,3.40266 0.003,1.81761 -19.07886,36.50398 -20.16354,36.65169 C 875.10095,716.78188 861.675,710.09819 846,701.82921 Z m 27.00135,-57.52005 c -16.77426,-5.21022 -30.58618,-9.56065 -30.69315,-9.66763 -0.65421,-0.65421 9.24891,-29.91068 11.32402,-33.4542 4.42201,-7.55113 13.17328,-11.2571 21.86271,-9.25839 8.72348,2.00654 14.96441,7.96451 16.17829,15.44479 0.71396,4.39958 0.31334,4.3746 16.75191,1.04446 7.00951,-1.42 12.86486,-2.4325 13.01187,-2.25 0.14701,0.18249 -0.67867,3.25591 -1.83485,6.82981 l -2.10215,6.498 -8,1.65902 c -4.4,0.91246 -10.61276,2.18801 -13.80614,2.83455 -5.99459,1.21369 -6.60777,1.83491 -8.24333,8.35152 -0.52605,2.09596 0.11774,2.44988 9.24201,5.08081 5.3941,1.55535 10.79714,3.20189 12.00676,3.65898 l 2.19929,0.83106 -2.0411,6.04403 c -1.44174,4.26924 -2.52802,6.01207 -3.69929,5.93518 -0.91201,-0.0599 -15.38259,-4.37176 -32.15685,-9.58199 z m 4.80182,-20.13011 c 3.43103,-10.65302 2.94751,-15.22238 -1.87469,-17.71604 -7.56178,-3.91034 -12.45572,-0.47072 -15.82402,11.12165 -1.22011,4.19912 -2.08024,7.75986 -1.91142,7.91277 0.28542,0.2585 15.63416,5.17512 16.86013,5.40076 0.30424,0.056 1.54174,-2.96762 2.75,-6.71914 z M 151,548.12573 c 0,-17.92931 1.02683,-22.49472 6.27796,-27.91251 3.99307,-4.1198 12.02482,-6.66143 18.00889,-5.69886 7.00836,1.12733 12.18164,4.77804 15.11648,10.66748 2.2904,4.59624 2.59667,6.42614 2.59667,15.5145 V 551 h 12 12 v 6.5 6.5 h -33 -33 z m 30,-5.07868 c 0,-4.37412 -0.49962,-9.0495 -1.11027,-10.38973 -1.27747,-2.80374 -4.78501,-4.67143 -8.68678,-4.62552 C 165.27853,528.10151 163,532.24096 163,542.93426 V 551 h 9 9 z m 4,-46.33824 c -16.775,-3.33358 -30.62756,-6.14685 -30.78346,-6.25172 -0.82777,-0.55681 5.92007,-30.80163 7.60545,-34.08876 6.34263,-12.37053 21.77133,-15.15117 32.13194,-5.79099 3.42079,3.09048 4.65079,5.12948 6.39085,10.59423 0.47188,1.48194 2.07076,1.1831 14.09374,-2.63425 15.24929,-4.84171 14.51884,-5.09976 12.47962,4.40878 l -1.08186,5.04454 -13.16814,4.12902 c -7.24248,2.27097 -13.23855,4.18557 -13.3246,4.25468 -0.0861,0.0691 -0.4642,2.19351 -0.84033,4.72087 l -0.68387,4.59522 8.84033,1.69322 c 4.86218,0.93127 10.12955,1.94804 11.70527,2.25948 2.80226,0.55388 2.8507,0.67365 2.21394,5.47375 -0.86491,6.52002 -1.47759,7.9052 -3.43587,7.76805 C 216.23936,502.82164 201.775,500.04238 185,496.70881 Z m 2.89575,-21.81004 c 0.76766,-4.18068 1.09801,-8.78749 0.73412,-10.23735 -0.86392,-3.44215 -4.67322,-5.86142 -9.22918,-5.86142 -5.35359,0 -7.38427,2.6413 -9.48973,12.34326 -0.99065,4.56492 -1.71338,8.38119 -1.60607,8.48061 0.61057,0.56568 14.52145,3.1767 16.19511,3.03976 1.67289,-0.13687 2.22828,-1.40683 3.39575,-7.76486 z m 20.88589,-40.45171 C 196.34642,431.43235 185.48813,423.79746 180.93056,414.86388 171.86486,397.09365 185.66338,375 205.82741,375 c 10.20685,0 22.25506,4.79951 30.69287,12.22677 12.30527,10.83153 12.72892,28.31368 0.97972,40.42907 -7.57799,7.81418 -16.14362,9.83975 -28.71836,6.79122 z m 18.85332,-14.36614 c 4.49496,-2.74089 7.07205,-9.77777 5.50111,-15.02109 -2.86052,-9.54755 -21.63123,-18.88849 -32.22455,-16.03601 -13.06714,3.51862 -13.92826,18.45267 -1.54135,26.73096 9.2075,6.15346 22.04559,8.11842 28.26479,4.32614 z m 21.21621,-42.37602 -2.64884,-1.2049 1.6824,-5.49357 c 1.67003,-5.45319 1.70921,-5.49126 5.32949,-5.17936 2.95267,0.25439 3.95023,-0.14842 5.23912,-2.11552 0.87562,-1.33636 1.32652,-3.12166 1.002,-3.96734 -0.32452,-0.84568 -10.46572,-7.93377 -22.53601,-15.75131 l -21.94597,-14.21372 2.20531,-3.63959 c 1.21292,-2.00177 2.67716,-4.42709 3.25387,-5.38959 0.5767,-0.9625 1.37962,-1.75 1.78427,-1.75 1.27654,0 44.20097,28.57817 45.99505,30.62253 3.01049,3.43046 4.90645,9.22992 4.21769,12.90133 -2.16256,11.52741 -14.35408,19.37697 -23.57838,15.18104 z m 548.05092,-35.8266 c -6.69068,-8.31694 -12.21825,-15.67274 -12.28348,-16.34623 -0.12387,-1.27884 49.37196,-41.72748 50.51944,-41.28515 0.36111,0.13919 6.42418,7.39093 13.47349,16.11496 l 12.81693,15.86188 -4.45464,3.79856 c -2.45005,2.0892 -4.79524,3.58805 -5.21153,3.33077 -0.55002,-0.33993 -13.86811,-16.59002 -17.40648,-21.23855 -0.37562,-0.49347 -3.92941,1.914 -8.20027,5.55518 l -3.34446,2.85136 8.07652,9.98946 8.07653,9.98946 -4.23207,3.7473 c -2.32764,2.06101 -4.45707,3.73085 -4.73207,3.71076 -0.275,-0.0201 -2.8671,-3.05637 -5.76021,-6.7473 -2.89312,-3.69092 -6.51461,-8.21379 -8.04776,-10.05084 l -2.78754,-3.34007 -5.70225,4.64502 C 804.56601,325.01963 802,327.49656 802,327.96916 c 0,0.47261 3.90422,5.66894 8.67603,11.5474 l 8.67604,10.68811 -3.92604,3.36012 c -2.15931,1.84806 -4.47346,3.37701 -5.14254,3.39766 -0.66908,0.0206 -6.69071,-6.76722 -13.3814,-15.08415 z M 266,319.38062 c -12.375,-11.2766 -23.35419,-21.34208 -24.3982,-22.36774 -1.85941,-1.82672 -1.61623,-2.17298 11.8965,-16.93886 C 261.08539,271.78331 267.61921,265 268.0179,265 c 0.39868,0 2.57734,1.6875 4.84144,3.75 l 4.11657,3.75 -9.48796,10.34729 c -5.21837,5.69102 -9.48773,10.64102 -9.48746,11 2.7e-4,0.35899 2.31442,2.64544 5.14256,5.08099 l 5.14208,4.42828 3.54087,-3.92828 c 1.94747,-2.16055 5.89418,-6.49915 8.77046,-9.64133 l 5.22959,-5.71306 4.33697,3.87955 4.33698,3.87955 -3.99022,4.3335 c -2.19461,2.38343 -6.24461,6.73397 -9,9.66788 l -5.00978,5.33436 5.99583,5.40685 5.99583,5.40686 6.57565,-7.24122 c 3.6166,-3.98267 7.95869,-8.80462 9.64909,-10.71543 l 3.07346,-3.47421 4.52908,4.17476 4.52908,4.17476 -12.5404,13.79945 c -6.89722,7.5897 -13.27552,14.56074 -14.17401,15.49121 -1.52455,1.57883 -3.13564,0.32305 -24.13361,-18.81114 z M 753.68333,296.74117 749.19267,292.5 761.34633,260.26844 C 768.03085,242.54108 773.95,228.04703 774.5,228.05945 c 1.29317,0.0292 9.50135,7.44275 9.49569,8.57642 -0.002,0.47527 -3.82737,10.68269 -8.5,22.68315 C 770.82306,271.31948 767,281.30186 767,281.50209 c 0,0.29777 26.53133,-15.22972 38.63497,-22.61115 l 3.13497,-1.91187 5.06,4.26046 c 2.783,2.34326 4.74726,4.56234 4.36503,4.9313 -0.38223,0.36895 -12.16997,7.26527 -26.19497,15.32514 -14.025,8.05988 -27.37335,15.74153 -29.663,17.07035 l -4.16301,2.41602 z m -429.98748,-8.71186 c -14.88426,-5.81575 -28.13552,-26.11886 -26.2625,-40.23844 1.65956,-12.51036 10.9622,-22.20177 23.2798,-24.25271 5.78739,-0.96362 14.46588,1.68017 18.90449,5.75901 l 3.48533,3.20283 -4.44555,4.35424 -4.44554,4.35424 -4.4438,-2.60424 c -5.34941,-3.13497 -8.92816,-3.28646 -13.33256,-0.56439 -4.88809,3.02101 -7.03931,9.2748 -5.45793,15.86672 2.41625,10.07209 13.59321,21.68966 21.94473,22.80984 6.76438,0.90729 14.09954,-4.88605 14.05572,-11.10127 -0.0121,-1.71333 -0.9015,-5.05315 -1.97649,-7.42183 l -1.95453,-4.30669 6.22649,-2.8233 6.22649,-2.8233 2.23713,4.62999 c 4.81652,9.9683 1.77668,23.38693 -6.84495,30.21539 -8.39745,6.6509 -18.24577,8.44119 -27.19633,4.94391 z M 706.20496,264.10577 C 699.49969,261.78974 694.32255,257.628 690.5,251.48106 c -2.72528,-4.38245 -3,-5.60978 -3,-13.40264 0,-7.82577 0.32386,-9.25663 3.6912,-16.3084 10.97951,-22.99288 32.53261,-30.44786 48.18778,-16.66763 6.3474,5.5872 8.83902,10.75351 9.35516,19.39761 0.70152,11.74908 -4.54111,23.29853 -15.11556,33.29941 -8.26388,7.81563 -17.13546,9.85649 -27.41362,6.30636 z m 13.66985,-12.54103 c 6.8152,-3.52428 14.78171,-15.86895 15.80238,-24.48691 1.05647,-8.92027 -4.71235,-16.06596 -12.97685,-16.07409 -4.93846,-0.005 -8.47166,1.89385 -13.14033,7.06151 -7.98357,8.83686 -11.55054,22.83165 -7.3478,28.82864 4.00773,5.71872 11.70166,7.75337 17.6626,4.67085 z M 381.4107,231.29416 c -6.31898,-13.03821 -11.64254,-23.85933 -11.83014,-24.04694 -0.18761,-0.1876 -4.22577,1.45363 -8.97371,3.64718 l -8.63261,3.98828 -2.48712,-4.9081 C 348.1192,207.27513 347,204.79259 347,204.45783 347,203.7894 391.52128,182 392.88706,182 c 0.79241,0 5.43723,10.04765 4.87272,10.54064 -0.14288,0.12478 -3.97171,2.08392 -8.50852,4.35364 l -8.24873,4.12677 12.05698,24.09789 c 6.63134,13.25385 11.91827,24.21997 11.74874,24.36918 -0.6748,0.59387 -10.77972,5.51188 -11.32514,5.51188 -0.32086,0 -5.75344,-10.66763 -12.07241,-23.70584 z M 650.5,237.5036 c -12.16258,-4.29145 -17.90499,-6.78122 -17.70702,-7.67736 0.44443,-2.01187 20.45341,-60.26308 20.86903,-60.75504 0.50281,-0.59517 11.16059,2.83274 11.74443,3.77742 0.26103,0.42235 -3.32642,11.76669 -7.9721,25.20964 -4.64568,13.44296 -8.27491,24.89174 -8.06495,25.44174 0.20995,0.55 5.72523,2.74422 12.25617,4.87604 6.53094,2.13183 12.0224,4.00479 12.20324,4.16214 0.75586,0.65767 -3.28437,11.45567 -4.26142,11.38918 -0.58706,-0.04 -9.16738,-2.93064 -19.06738,-6.42376 z M 465.48428,225.76586 C 465.22846,225.06964 460.10035,210.775 454.08848,194 l -10.93066,-30.5 3.17109,-0.68504 c 1.7441,-0.37678 4.72371,-0.82326 6.62135,-0.99218 l 3.45025,-0.30714 7.17299,20.28209 c 3.94514,11.15515 7.37703,20.48613 7.6264,20.73551 0.24938,0.24938 2.19239,-9.55608 4.31779,-21.78991 2.1254,-12.23383 4.34091,-22.57394 4.92334,-22.97802 0.58243,-0.40408 2.18397,-0.734 3.55897,-0.73316 2.24114,0.001 3.61016,2.14833 13.22158,20.73469 l 10.72158,20.73316 0.16077,-7 c 0.0884,-3.85 0.43871,-13.94391 0.77842,-22.43091 0.69549,-17.37552 -0.15738,-15.81986 9.52211,-17.36871 l 3.90445,-0.62477 -0.66619,19.2122 c -0.36641,10.5667 -0.9522,25.78521 -1.30175,33.8189 l -0.63555,14.6067 -6.44743,0.96356 c -7.60804,1.137 -5.62737,3.34351 -17.21417,-19.17697 -4.5276,-8.8 -8.55394,-16.34178 -8.94742,-16.75951 -0.39349,-0.41773 -2.27679,8.5534 -4.18512,19.93586 -3.88242,23.15716 -2.73371,21.1037 -12.68658,22.67879 -3.04775,0.48232 -4.40884,0.31313 -4.74042,-0.58928 z m 100.8286,-5.68349 c -10.55292,-0.89281 -19.48004,-1.9162 -19.83805,-2.27421 -0.52874,-0.52873 4.23849,-64.91179 4.84531,-65.43763 0.0989,-0.0857 9.40486,0.58509 20.67986,1.49069 l 20.5,1.64655 -0.11828,5.78107 c -0.0651,3.17958 -0.29006,5.94034 -0.5,6.13502 -0.20995,0.19467 -6.56416,-0.12612 -14.12047,-0.71287 -7.55631,-0.58675 -13.90729,-0.87426 -14.11327,-0.63891 -0.20599,0.23536 -0.66855,3.41634 -1.02793,7.06886 l -0.6534,6.64093 10.26667,0.66125 C 588.62451,181.49884 588,181.21617 588,187.57946 V 193 l -5.75,-0.0711 c -3.1625,-0.0391 -9.18493,-0.38434 -13.38317,-0.76712 l -7.63317,-0.69597 -0.66892,7.3817 c -0.3679,4.05994 -0.44132,7.6093 -0.16315,7.88746 0.27817,0.27817 6.4891,0.95575 13.80208,1.50574 7.31298,0.54999 13.60274,1.28334 13.97724,1.62966 1.00426,0.9287 -0.51151,11.43475 -1.68091,11.65068 -0.55,0.10156 -9.63421,-0.54583 -20.18712,-1.43863 z"
         id="path2190"
         sodipodi:nodetypes="sscccccccsssssscccsscssssssssscccssssscssssssscsssssssssscsssssssssssssssssssssssscssssssssssssssscsssscsscsssssssssscssscssssssscsssssssssssssscccssscssssscsssssscsssscccccsscsssssssscccssssscssscsssssssssscssssscsssssssssssssscccccccssssscccsssssssscssscsssssssssssssssssssssssscssssscsssssssssscsssscccsssscssscsssssssscssscsscccsscccsscccsssccsscssscssssccsssscccsssssscccsssssssssssssssssssscssssscsssssssssssssssscsscsssscscssscsscsssssssssscssssscsscsscsssssss" />
      <ellipse
         style="fill:none;stroke:#05ce78;stroke-width:10;stroke-dasharray:none;stroke-opacity:1;paint-order:stroke markers fill"
         id="path289"
         cx="540.5"
         cy="530"
         rx="420.54239"
         ry="420.13812" />
      <ellipse
         style="fill:none;stroke:#05ce78;stroke-width:8;stroke-dasharray:none;stroke-opacity:1;paint-order:stroke markers fill"
         id="path289-3"
         cx="540.5"
         cy="530"
         rx="280.85489"
         ry="280.5849" />
      <path
         id="path289-3-6"
         class="UnoptimicedTransforms"
         d="m 773.29218,524 c -0.0119,6.45242 -0.32498,12.88447 -0.92649,19.27624 l -34.11907,-3.21147 c 0.50333,-5.34666 0.7576,-10.70822 0.74995,-16.06477 z m -8.24544,58.2402 c -1.73947,6.14003 -3.74076,12.19861 -5.99105,18.15582 l -32.10457,-12.11423 c 1.91074,-5.06786 3.61182,-10.21169 5.09041,-15.4116 z m -22.92047,53.63565 c -3.17707,5.46642 -6.56156,10.80505 -10.14041,16.00462 l -28.24403,-19.4555 c 3.0913,-4.48509 6.01052,-9.08346 8.74461,-13.78382 z m -34.72339,46.38045 c -1.71109,1.80962 -3.44836,3.59384 -5.21099,5.35197 -2.69132,2.69109 -5.44348,5.3228 -8.25397,7.89227 l -23.13995,-25.3236 c 2.4362,-2.22527 4.82338,-4.50459 7.15907,-6.83512 1.5264,-1.52584 3.03092,-3.07374 4.51275,-4.64299 z m -44.25623,37.31466 c -5.26065,3.49056 -10.65749,6.7841 -16.17919,9.8677 l -16.72003,-29.93231 c 4.74588,-2.65154 9.39242,-5.49064 13.92831,-8.50439 z m -51.9701,26.17652 c -5.9987,2.14128 -12.09419,4.03153 -18.26667,5.65795 l -8.76287,-33.16748 c 5.22401,-1.38299 10.39633,-2.99067 15.49716,-4.81023 z m -60.19667,-22.4727 2.66193,34.54522 -19.03101,0.723 0.6565,-34.27914 m -40.13734,29.75018 c -6.25669,-1.30954 -12.44813,-2.89049 -18.55449,-4.73005 l 9.91105,-32.85 c 5.17854,1.56419 10.41685,2.90892 15.69511,4.02137 z M 439.96864,734.692 c -5.66558,-2.83047 -11.21301,-5.87854 -16.63095,-9.13129 l 17.6568,-29.39234 c 4.66295,2.80243 9.42984,5.42256 14.28936,7.84747 z M 391.4845,702.86761 c -4.83391,-4.04404 -9.51492,-8.26602 -14.03169,-12.65302 l 23.88495,-24.6156 c 3.91847,3.79939 7.97563,7.45613 12.16017,10.95731 z m -39.91227,-41.90072 c -3.80442,-5.03095 -7.4222,-10.20765 -10.84029,-15.51881 l 28.82962,-18.56817 c 2.94872,4.57564 6.07484,9.0426 9.36532,13.38961 z M 322.2002,610.86596 c -2.5406,-5.83022 -4.83982,-11.77358 -6.88481,-17.81019 l 32.5005,-11.01308 c 1.73754,5.12654 3.68997,10.18522 5.84445,15.15614 z m -16.19695,-56.28372 c -0.93849,-6.33711 -1.5962,-12.72628 -1.96026,-19.1476 l 34.2196,-1.9197 c 0.29797,5.35551 0.85025,10.70424 1.644,16.02629 z m -0.31511,-58.95802 c 0.87321,-6.34891 2.0287,-12.64807 3.45363,-18.87756 l 33.4272,7.67357 c -1.21063,5.25931 -2.19116,10.56291 -2.92873,15.89088 z m 15.63805,-56.45758 c 0.6126,-1.44398 1.23996,-2.88121 1.88189,-4.31141 1.95537,-4.36223 4.03845,-8.66054 6.24365,-12.89011 l 30.40317,15.84699 c -1.89133,3.6294 -3.67319,7.3129 -5.33999,11.04569 -0.5442,1.21995 -1.07621,2.4454 -1.59585,3.67604 z m 28.9302,-50.37763 c 3.76096,-5.0646 7.71007,-9.98477 11.83428,-14.74922 l 25.93934,22.45082 c -3.57086,4.1261 -6.98891,8.38213 -10.24109,12.75681 z m 39.55279,-42.24273 c 4.7983,-4.08513 9.75083,-7.99382 14.84625,-11.71314 l 20.23131,27.69861 c -4.40089,3.21602 -8.68442,6.59903 -12.83927,10.1361 z m 48.19344,-32.24494 c 3.72815,-1.90491 7.50855,-3.71533 11.33791,-5.42752 1.9652,-0.87989 3.94362,-1.73235 5.93449,-2.55687 l 13.10049,31.7072 c -1.69687,0.69984 -3.38419,1.42312 -5.06119,2.16935 -3.27793,1.46014 -6.51807,3.00873 -9.71713,4.64203 z m 54.95358,-19.84893 c 6.24129,-1.37231 12.55013,-2.47469 18.90672,-3.29434 l 4.39742,33.98957 c -5.33342,0.69178 -10.64441,1.62715 -15.91314,2.7933 z m 58.61502,-4.60554 c 6.41425,0.41289 12.79479,1.11758 19.12181,2.10126 l -5.28728,33.86754 c -5.31863,-0.83295 -10.66548,-1.42606 -16.02075,-1.7665 z m 57.51482,11.67095 c 6.02088,2.0829 11.94725,4.4183 17.75932,6.9934 l -13.85435,31.37474 c -4.95893,-2.18418 -10.00687,-4.16779 -15.12401,-5.93805 z m 52.22523,25.70501 c 5.29208,3.44469 10.44928,7.08791 15.46028,10.91673 l -20.83322,27.25196 c -4.33138,-3.31244 -8.78344,-6.46166 -13.34483,-9.43474 z m 44.57975,36.93565 c 4.3656,4.5383 8.56535,9.24031 12.58618,14.09474 l -26.41839,21.885 c -3.4805,-4.20102 -7.11762,-8.27541 -10.89831,-12.21188 z m 35.12177,46.06936 c 3.22499,5.43663 6.24407,11.00236 9.04421,16.68589 l -30.76242,15.14255 c -2.39656,-4.87189 -4.98979,-9.65175 -7.76664,-14.32831 z m 23.41834,53.39948 c 1.80001,6.12087 3.33968,12.3255 4.60615,18.59398 l -33.60487,6.81716 c -1.07514,-5.28349 -2.38415,-10.5285 -3.91416,-15.71513 z"
         style="fill:#05ce78;fill-opacity:1;stroke:none;stroke-width:6.09409;stroke-dasharray:none;stroke-opacity:1;paint-order:stroke markers fill"
         transform="rotate(5.6173917,538.52183,523.99892)"
         sodipodi:nodetypes="cccccccccccccccccccccccccccccccccccccccccccccccccccccccccccccccccccccccccccccccccccccccccccccccccccccccccccccccccccccccccccccccccc" />
      <path
         d="m 555.4405,634.47115 c -103.06022,-37.50127 -122.5032,-46.3006 -142.19162,-64.35183 -21.66419,-19.86271 -30.91111,-46.7362 -25.31304,-73.56499 2.21409,-10.61106 9.21239,-23.86076 17.10628,-32.38689 25.26859,-27.29242 63.41888,-35.21413 94.4149,-19.60479 3.81345,1.92042 7.34136,3.49168 7.8398,3.49168 0.49844,0 1.39953,-1.959 2.00243,-4.35334 0.60291,-2.39434 3.11536,-8.38683 5.58323,-13.31665 9.42229,-18.82192 26.0206,-31.95163 49.26143,-38.9671 7.45377,-2.24999 10.78107,-2.67 21.79659,-2.75139 15.24135,-0.1126 21.66075,1.28881 34.5,7.53167 6.98442,3.39605 10.13094,5.77266 17.64701,13.32902 7.72672,7.76814 9.85648,10.65808 13.71615,18.61192 7.3891,15.22714 9.75365,29.88728 7.64776,47.41587 -3.098,25.78654 -11.70535,47.24973 -50.99627,127.16377 -19.52106,39.70399 -19.30451,39.40255 -28.21499,39.27438 -2.72541,-0.0392 -11.80539,-2.79301 -24.79966,-7.52133 z m 38.96744,-42.66682 c 28.29209,-57.6987 40.14514,-84.68321 44.69405,-101.75 3.09025,-11.59414 4.20811,-29.82872 2.40435,-39.21989 -1.94352,-10.11884 -8.08423,-21.68739 -15.38974,-28.9929 -10.98592,-10.98592 -22.91562,-15.78721 -39.22624,-15.78721 -30.07798,0 -54.8487,18.58415 -61.93687,46.46793 -0.83439,3.28236 -2.01703,11.15736 -2.6281,17.5 -0.61107,6.34264 -1.17265,11.60071 -1.24796,11.6846 -0.0753,0.0839 -4.5728,-3.60363 -9.99443,-8.19449 -25.08478,-21.24102 -47.68628,-24.98674 -73.6425,-12.20469 -10.56042,5.20044 -22.82774,16.86526 -27.84439,26.47684 -10.89318,20.87062 -6.66803,45.8106 10.95842,64.68483 12.31936,13.19146 28.70465,22.8738 59.22627,34.99779 21.61016,8.58413 96.37118,36.3314 98.48665,36.55295 0.17983,0.0188 7.44305,-14.47826 16.14049,-32.21576 z"
         style="fill:#e98269;fill-opacity:1"
         id="path2286" />
    </g>
  </g>
</svg>
