<?xml version="1.0" encoding="UTF-8" standalone="no"?>
<!-- Created with Inkscape (http://www.inkscape.org/) -->

<svg
   width="800"
   height="200"
   viewBox="0 0 211.66666 52.916667"
   version="1.1"
   id="svg5"
   inkscape:version="1.1 (c4e8f9ed74, 2021-05-24)"
   sodipodi:docname="logo.svg"
   inkscape:export-filename="/home/linus/Projects/cl/kandria/data/texture/logo.png"
   inkscape:export-xdpi="122.88"
   inkscape:export-ydpi="122.88"
   xmlns:inkscape="http://www.inkscape.org/namespaces/inkscape"
   xmlns:sodipodi="http://sodipodi.sourceforge.net/DTD/sodipodi-0.dtd"
   xmlns="http://www.w3.org/2000/svg"
   xmlns:svg="http://www.w3.org/2000/svg">
  <sodipodi:namedview
     id="namedview7"
     pagecolor="#ffffff"
     bordercolor="#666666"
     borderopacity="1.0"
     inkscape:pageshadow="2"
     inkscape:pageopacity="0.0"
     inkscape:pagecheckerboard="0"
     inkscape:document-units="mm"
     showgrid="false"
     inkscape:snap-intersection-paths="true"
     inkscape:snap-smooth-nodes="true"
     inkscape:object-paths="true"
     inkscape:zoom="2"
     inkscape:cx="341.25"
     inkscape:cy="142.5"
     inkscape:window-width="3836"
     inkscape:window-height="2109"
     inkscape:window-x="1920"
     inkscape:window-y="49"
     inkscape:window-maximized="1"
     inkscape:current-layer="text2540"
     lock-margins="true"
     fit-margin-top="5"
     fit-margin-left="5"
     fit-margin-right="5"
     fit-margin-bottom="5"
     inkscape:snap-page="true"
     units="px" />
  <defs
     id="defs2">
    <inkscape:path-effect
       effect="bend_path"
       id="path-effect19385"
       is_visible="true"
       lpeversion="1"
       bendpath="m 238.39065,281.53256 -0.0493,29.29959 c -10.41851,0.76756 10.23036,2.39279 -0.004,2.54097 l -0.007,3.995"
       prop_scale="-0.74627922"
       scale_y_rel="false"
       vertical="true"
       hide_knot="false"
       bendpath-nodetypes="cccc" />
    <inkscape:path-effect
       effect="skeletal"
       id="path-effect19175"
       is_visible="true"
       lpeversion="1"
       pattern="M 0,0 H 1"
       copytype="single_stretched"
       prop_scale="1"
       scale_y_rel="false"
       spacing="0"
       normal_offset="0"
       tang_offset="0"
       prop_units="false"
       vertical_pattern="false"
       hide_knot="false"
       fuse_tolerance="0" />
    <inkscape:path-effect
       effect="rough_hatches"
       id="path-effect19173"
       is_visible="true"
       lpeversion="1"
       direction="411.87989,165.21777 , 154.58057,0"
       dist_rdm="66.7;1"
       growth="0"
       do_bend="true"
       bender="411.87989,170.21777 , 5,0"
       bottom_edge_variation="10.026758;1"
       top_edge_variation="10.026758;1"
       bottom_tgt_variation="0;1"
       top_tgt_variation="0;1"
       scale_bf="1"
       scale_bb="1"
       scale_tf="1"
       scale_tb="1"
       top_smth_variation="0;1"
       bottom_smth_variation="0;1"
       fat_output="true"
       stroke_width_top="1"
       stroke_width_bottom="1"
       front_thickness="1"
       back_thickness="0.25" />
    <inkscape:path-effect
       effect="curvestitching"
       id="path-effect18168"
       is_visible="true"
       lpeversion="1"
       count="8"
       startpoint_edge_variation="0;1"
       startpoint_spacing_variation="0;1"
       endpoint_edge_variation="0;1"
       endpoint_spacing_variation="0;1"
       strokepath="M 0,0 H 1"
       prop_scale="1"
       scale_y_rel="false" />
    <inkscape:path-effect
       effect="lattice2"
       gridpoint0="102.71875,120.08398"
       gridpoint1="721.04102,120.08398"
       gridpoint2="102.71875,220.35156"
       gridpoint3="721.04102,220.35156"
       gridpoint4="257.29932,120.08398"
       gridpoint5="566.46045,120.08398"
       gridpoint6="257.29932,220.35156"
       gridpoint7="566.46045,220.35156"
       gridpoint8x9="411.87989,120.08398"
       gridpoint10x11="411.87989,220.35156"
       gridpoint12="102.71875,145.15087"
       gridpoint13="721.04102,145.15087"
       gridpoint14="102.71875,195.28467"
       gridpoint15="721.04102,195.28467"
       gridpoint16="257.29932,145.15087"
       gridpoint17="566.46045,145.15087"
       gridpoint18="257.29932,195.28467"
       gridpoint19="566.46045,195.28467"
       gridpoint20x21="411.87989,145.15087"
       gridpoint22x23="411.87989,195.28467"
       gridpoint24x26="102.71875,170.21777"
       gridpoint25x27="721.04102,170.21777"
       gridpoint28x30="257.29932,170.21777"
       gridpoint29x31="566.46045,170.21777"
       gridpoint32x33x34x35="411.87989,170.21777"
       id="path-effect17047"
       is_visible="true"
       lpeversion="1"
       horizontal_mirror="false"
       vertical_mirror="false"
       perimetral="false"
       live_update="true" />
    <inkscape:path-effect
       effect="interpolate_points"
       id="path-effect17039"
       is_visible="true"
       lpeversion="1"
       interpolator_type="CentripetalCatmullRom" />
    <inkscape:path-effect
       effect="vonkoch"
       id="path-effect17037"
       is_visible="true"
       lpeversion="1"
       ref_path="M 102.71875,170.21777 H 721.04102"
       generator="m 102.71875,220.35156 h 206.10742 m 206.10743,0 h 206.10742"
       similar_only="false"
       nbgenerations="1"
       drawall="true"
       maxComplexity="1000" />
    <inkscape:path-effect
       effect="sketch"
       id="path-effect17035"
       is_visible="true"
       lpeversion="1"
       nbiter_approxstrokes="11"
       strokelength="100"
       strokelength_rdm="0.3;1"
       strokeoverlap="0.3"
       strokeoverlap_rdm="0.3;1"
       ends_tolerance="0.1;1"
       parallel_offset="5;1"
       tremble_size="5;1"
       tremble_frequency="1"
       nbtangents="5"
       tgt_places_rdmness="1;1"
       tgtscale="10"
       tgtlength="100"
       tgtlength_rdm="0.3;1" />
    <rect
       x="92.517334"
       y="299.33246"
       width="302.85654"
       height="133.86591"
       id="rect13939" />
    <rect
       x="36.738125"
       y="178.96902"
       width="681.51593"
       height="249.74619"
       id="rect2542" />
  </defs>
  <g
     inkscape:label="Layer 1"
     inkscape:groupmode="layer"
     id="layer1"
     transform="translate(3.388729,-13.17171)">
    <g
       aria-label="Kandria"
       transform="matrix(0.41870925,0,0,0.41870925,12.531421,-79.164433)"
       id="text2540"
       style="font-size:192px;line-height:1.25;font-family:chewy;-inkscape-font-specification:chewy;letter-spacing:0px;word-spacing:0px;white-space:pre;shape-inside:url(#rect2542);display:inline">
      <path
         id="rect8454-5"
         style="font-size:192px;line-height:1.25;font-family:chewy;-inkscape-font-specification:chewy;letter-spacing:0px;word-spacing:0px;white-space:pre;shape-inside:url(#rect2542);display:inline;fill:#000000;fill-opacity:0.164438;stroke-width:1.62847;stroke-dashoffset:4.49997"
         d="m 428.16209,220.52568 0,108.94659 h 7.3829 l 0,-108.94659 z m -30.70992,0 0,108.9599 h 3.5986 l 0,-108.9599 z m 44.92724,0 0,108.94659 h 4.4864 l 0,-108.94659 z"
         sodipodi:nodetypes="ccccccccccccccc" />
      <path
         id="rect8454"
         style="fill:#000000;fill-opacity:0.271786;stroke-width:1.67604;stroke-dashoffset:4.49997"
         d="m 422.13681,220.52568 0,108.94659 h 3.24467 l 0,-108.94659 z m 3.9136,0 0,108.94659 h 0.75285 l 0,-108.94659 z m 9.49458,0 0,108.98069 h 3.24467 l 0,-108.98069 z m 5.0772,0 0,108.98067 h 1.42504 l 0,-108.98067 z"
         sodipodi:nodetypes="cccccccccccccccccccc" />
      <path
         id="rect8454-7"
         style="font-size:192px;line-height:1.25;font-family:chewy;-inkscape-font-specification:chewy;letter-spacing:0px;word-spacing:0px;white-space:pre;shape-inside:url(#rect2542);display:inline;fill:#000000;fill-opacity:0.579696;stroke-width:2.83165;stroke-dashoffset:4.49997"
         d="m 401.05077,220.52568 0,106.92559 h 2.62511 l 0,-106.92559 z m 5.01279,0 0,113.04398 h 0.94169 l 0,-113.04398 z m 2.50463,0 0,113.04398 h 0.33323 l 0,-113.04398 z m 0.57019,0 0,113.04398 4.975,-2.26478 0,-110.7792 z m 5.43781,0 0,108.94659 h 5.68959 l 0,-108.94659 z m 5.92779,0 0,108.94659 h 0.27523 l 0,-108.94659 z"
         sodipodi:nodetypes="cccccccccccccccccccccccccccccc" />
      <path
         id="path11406"
         style="font-size:96px;font-family:PromptFont;-inkscape-font-specification:PromptFont;stroke-width:1.58252"
         d="m 575.63672,102.48242 -16.01758,12.41211 16.01758,12.41211 16.01758,-12.41211 z m -506.783204,4.82227 v 88.72461 c 0,2.96729 -62.7636722,5.0039 -62.7636722,5.0039 H 88.998047 c 0,0 -20.144531,0.0659 -20.144531,6.53907 h 30.384765 c 0,-6.53359 20.144529,-6.53907 20.144529,-6.53907 h 40.02149 c 0,0 -15.19727,-0.0297 -15.19727,6.53907 h 34.03125 c 0,-6.6093 15.19336,-6.53907 15.19336,-6.53907 h 23.07227 c 0,0 -14.39063,-0.22929 -14.39063,6.53907 h 67.27734 c 0,-6.46244 20.14454,-6.53907 20.14454,-6.53907 h 18.23046 c 0,0 -20.14453,-0.0196 -20.14453,6.53907 h 27.34571 c 0,-6.47908 8.39453,-6.53907 8.39453,-6.53907 h -14.0293 c 0,0 5.56836,-0.11997 5.56836,-5.0039 l 0.0664,-46.94727 h 26.58789 c 2.53203,0 3.79687,1.01343 3.79687,3.03906 v 43.90821 c 0,4.6949 -7.66406,4.63476 -7.66406,4.63476 l 27.80859,0.36914 c 0,0 -20.14453,-0.075 -20.14453,6.53907 h 27.34571 c 0,-6.64833 20.14453,-6.53907 20.14453,-6.53907 h 28.95117 c 0,0 -15.89063,-0.0752 -15.89063,6.53907 h 70.10157 c 0,-6.51017 20.14453,-6.53907 20.14453,-6.53907 h 18.23047 c 0,0 -20.14461,0.0662 -20.14453,6.53907 h 27.34765 c 0,-6.51062 15.04635,-6.53907 15.04635,-6.53907 -2.03175,-0.0507 -20.61471,0 -20.61471,0 0,0 5.56836,-0.0155 5.56836,-5.0039 v -43.90821 c 0,-2.02563 1.26484,-3.03906 3.79688,-3.03906 h 22.02929 l 7.17969,-15.95117 h -37.56445 c -15.19222,0 -22.7891,6.07669 -22.78906,18.23047 v 44.66797 c 0,4.877 -24.73438,5.0039 -24.73438,5.0039 0,0 6.50391,-0.0378 6.50391,-5.0039 v -88.72461 h -27.3457 v 25.82617 h -34.9414 c -15.19223,0 -22.78907,6.07669 -22.78907,18.23047 v 37.98047 c 0,3.33531 0.59409,4.26752 1.73829,6.6875 0,4.99341 -25.53711,5.0039 -25.53711,5.0039 0,0 5.56836,-0.0427 5.56836,-5.0039 v -44.66797 c 0,-12.15378 -7.59489,-18.23047 -22.78711,-18.23047 h -55.10938 l -7.17969,15.95117 v 46.94727 c 0,4.95845 -23.79882,5.0039 -23.79882,5.0039 0,0 5.56843,-0.20745 5.56835,-5.0039 v -44.66797 c 0,-12.15378 -7.59684,-18.23047 -22.78906,-18.23047 h -45.99218 l -7.17969,15.95117 h 44.8164 c 2.53204,0 3.79883,1.01343 3.79883,3.03906 v 9.11524 h -31.9043 c -15.19222,0 -22.7871,6.0767 -22.7871,18.23047 v 9.875 c 0,3.33551 0.59415,4.26741 1.73828,6.6875 0,4.95523 -23.70117,5.0039 -23.70118,5.0039 0,0 5.56836,-0.0682 5.56836,-5.0039 l -37.23437,-47.25 42.99414,-41.47461 h -37.2207 l -40.259769,38.73828 v -38.73828 z m 499.406254,25.82617 -7.17969,15.95117 v 46.94727 c 0,4.99092 -15.10409,5.0039 -15.10409,5.0039 h 35.24862 c 0,0 -20.14453,0.0915 -20.14453,6.53907 h 27.3457 c 0,-6.47157 20.14453,-6.53907 20.14453,-6.53907 h 25.71875 c 0,0 -14.39062,-0.13323 -14.39062,6.53907 h 55.42187 v -74.3711 h -56.95703 l -7.14844,15.88086 h 44.81641 c 2.53204,0 3.79883,1.01343 3.79883,3.03906 v 9.11524 h -31.9043 c -15.19222,1e-5 -22.78711,6.0767 -22.78711,18.23047 v 9.875 c 0,3.33551 0.59415,4.26741 1.73828,6.6875 0,4.94741 -24.01953,5.0039 -24.01953,5.0039 0,0 5.56836,-0.19443 5.56836,-5.0039 v -62.89844 z m 109.4414,0.0703 v 74.3711 h 1.49024 c -0.004,-24.7838 0,-49.58054 0,-74.3711 z m 2.8125,0 v 74.3711 h 0.52735 0.004 c -0.004,-24.78775 -0.004,-49.57825 -0.004,-74.3711 z m 0.90235,0 v 74.3711 h 5.75976 c 0,-0.76399 0.79941,-1.43145 2.11328,-2.02735 v -4.51172 h -2.10742 c -0.006,-22.60357 0.006,-45.20546 0.006,-67.83203 z m -259.34375,15.88086 h 26.58593 v 42.53906 h -26.58593 c -2.53204,0 -3.79883,-1.01343 -3.79883,-3.03906 v -36.46094 c 0,-2.02563 1.26679,-3.03906 3.79883,-3.03906 z m -308.09766,18.53516 22.95898,28.41211 c 0,5.00916 -43.263668,5.0039 -43.263668,5.0039 0,0 5.568359,0.0351 5.568359,-5.63086 v -13.5039 z m 104.52148,9.57031 h 23.54883 v 14.43359 h -23.54883 c -2.53205,0 -3.79687,-1.01343 -3.79687,-3.03906 v -8.35547 c 0,-2.02563 1.26482,-3.03906 3.79687,-3.03906 z m 417.78516,0 h 23.54883 v 14.43359 h -23.54883 c -2.53204,0 -3.79695,-1.01343 -3.79687,-3.03906 v -8.35547 c 0,-2.02563 1.26483,-3.03906 3.79687,-3.03906 z m 53.74023,23.8457 v 4.25 c 2.07185,-0.79547 5.29946,-1.41113 9.00391,-1.93554 v -2.31446 z m 9.38086,0 v 2.26368 c 0.14383,-0.0198 0.29008,-0.0391 0.43555,-0.0586 v -2.20508 z m 2.58399,0 v 1.91797 c 1.67729,-0.19526 3.32956,-0.37644 5.13476,-0.5332 v -1.38477 z m 6.19336,0 v 1.30274 c 0.39603,-0.0326 0.792,-0.0628 1.1914,-0.0937 v -1.20899 z m 3.34179,0 v 1.04102 c 14.45098,-1.00319 29.9375,-1.04102 29.9375,-1.04102 z"
         transform="matrix(0.63190229,0,0,0.63190229,-21.44996,202.40427)"
         sodipodi:nodetypes="ccccccsccccccccccccccccccccsssccccccccccccccsssccscscscccsssccsssccsccssccsscssscccccccccccscccccccccccsscsssccscccccccccccccccccccccsccsssscccsccsccsssssccscsscccccccccccccccccccccccc" />
    </g>
  </g>
</svg>
