<?xml version="1.0" encoding="UTF-8"?>
<svg width="800" height="200" version="1.1" viewBox="0 0 211.67 52.917" xmlns="http://www.w3.org/2000/svg">
 <g transform="translate(3.3887 -13.172)">
  <g transform="matrix(.41871 0 0 .41871 12.531 -79.164)" fill="#fff" style="shape-inside:url(#rect2542);white-space:pre" aria-label="Kandria">
   <g stroke-dashoffset="4.5">
    <path d="m428.16 220.53v108.95h7.3829v-108.95zm-30.71 0v108.96h3.5986v-108.96zm44.927 0v108.95h4.4864v-108.95z" fill-opacity=".16444" stroke-width="1.6285" style="shape-inside:url(#rect2542);white-space:pre"/>
    <path d="m422.14 220.53v108.95h3.2447v-108.95zm3.9136 0v108.95h0.75285v-108.95zm9.4946 0v108.98h3.2447v-108.98zm5.0772 0v108.98h1.425v-108.98z" fill-opacity=".27179" stroke-width="1.676"/>
    <path d="m401.05 220.53v106.93h2.6251v-106.93zm5.0128 0v113.04h0.94169v-113.04zm2.5046 0v113.04h0.33323v-113.04zm0.57019 0v113.04l4.975-2.2648v-110.78zm5.4378 0v108.95h5.6896v-108.95zm5.9278 0v108.95h0.27523v-108.95z" fill-opacity=".5797" stroke-width="2.8316" style="shape-inside:url(#rect2542);white-space:pre"/>
   </g>
   <path transform="matrix(.6319 0 0 .6319 -21.45 202.4)" d="m575.64 102.48-16.018 12.412 16.018 12.412 16.018-12.412zm-506.78 4.8223v88.725c0 2.9673-62.764 5.0039-62.764 5.0039h82.908s-20.145 0.0659-20.145 6.5391h30.385c0-6.5336 20.145-6.5391 20.145-6.5391h40.021s-15.197-0.0297-15.197 6.5391h34.031c0-6.6093 15.193-6.5391 15.193-6.5391h23.072s-14.391-0.22929-14.391 6.5391h67.277c0-6.4624 20.145-6.5391 20.145-6.5391h18.23s-20.145-0.0196-20.145 6.5391h27.346c0-6.4791 8.3945-6.5391 8.3945-6.5391h-14.029s5.5684-0.11997 5.5684-5.0039l0.0664-46.947h26.588c2.532 0 3.7969 1.0134 3.7969 3.0391v43.908c0 4.6949-7.6641 4.6348-7.6641 4.6348l27.809 0.36914s-20.145-0.075-20.145 6.5391h27.346c0-6.6483 20.145-6.5391 20.145-6.5391h28.951s-15.891-0.0752-15.891 6.5391h70.102c0-6.5102 20.145-6.5391 20.145-6.5391h18.23s-20.145 0.0662-20.145 6.5391h27.348c0-6.5106 15.046-6.5391 15.046-6.5391-2.0318-0.0507-20.615 0-20.615 0s5.5684-0.0155 5.5684-5.0039v-43.908c0-2.0256 1.2648-3.0391 3.7969-3.0391h22.029l7.1797-15.951h-37.564c-15.192 0-22.789 6.0767-22.789 18.23v44.668c0 4.877-24.734 5.0039-24.734 5.0039s6.5039-0.0378 6.5039-5.0039v-88.725h-27.346v25.826h-34.941c-15.192 0-22.789 6.0767-22.789 18.23v37.98c0 3.3353 0.59409 4.2675 1.7383 6.6875 0 4.9934-25.537 5.0039-25.537 5.0039s5.5684-0.0427 5.5684-5.0039v-44.668c0-12.154-7.5949-18.23-22.787-18.23h-55.109l-7.1797 15.951v46.947c0 4.9584-23.799 5.0039-23.799 5.0039s5.5684-0.20745 5.5684-5.0039v-44.668c0-12.154-7.5968-18.23-22.789-18.23h-45.992l-7.1797 15.951h44.816c2.532 0 3.7988 1.0134 3.7988 3.0391v9.1152h-31.904c-15.192 0-22.787 6.0767-22.787 18.23v9.875c0 3.3355 0.59415 4.2674 1.7383 6.6875 0 4.9552-23.701 5.0039-23.701 5.0039 0 0 5.5684-0.0682 5.5684-5.0039l-37.234-47.25 42.994-41.475h-37.221l-40.26 38.738v-38.738zm499.41 25.826-7.1797 15.951v46.947c0 4.9909-15.104 5.0039-15.104 5.0039h35.249s-20.145 0.0915-20.145 6.5391h27.346c0-6.4716 20.145-6.5391 20.145-6.5391h25.719s-14.391-0.13323-14.391 6.5391h55.422v-74.371h-56.957l-7.1484 15.881h44.816c2.532 0 3.7988 1.0134 3.7988 3.0391v9.1152h-31.904c-15.192 1e-5 -22.787 6.0767-22.787 18.23v9.875c0 3.3355 0.59415 4.2674 1.7383 6.6875 0 4.9474-24.02 5.0039-24.02 5.0039s5.5684-0.19443 5.5684-5.0039v-62.898zm109.44 0.0703v74.371h1.4902c-4e-3 -24.784 0-49.581 0-74.371zm2.8125 0v74.371h0.53135c-4e-3 -24.788-4e-3 -49.578-4e-3 -74.371zm0.90235 0v74.371h5.7598c0-0.76399 0.79941-1.4314 2.1133-2.0274v-4.5117h-2.1074c-6e-3 -22.604 6e-3 -45.205 6e-3 -67.832zm-259.34 15.881h26.586v42.539h-26.586c-2.532 0-3.7988-1.0134-3.7988-3.0391v-36.461c0-2.0256 1.2668-3.0391 3.7988-3.0391zm-308.1 18.535 22.959 28.412c0 5.0092-43.264 5.0039-43.264 5.0039s5.5684 0.0351 5.5684-5.6309v-13.504zm104.52 9.5703h23.549v14.434h-23.549c-2.532 0-3.7969-1.0134-3.7969-3.0391v-8.3555c0-2.0256 1.2648-3.0391 3.7969-3.0391zm417.79 0h23.549v14.434h-23.549c-2.532 0-3.797-1.0134-3.7969-3.0391v-8.3555c0-2.0256 1.2648-3.0391 3.7969-3.0391zm53.74 23.846v4.25c2.0718-0.79547 5.2995-1.4111 9.0039-1.9355v-2.3145zm9.3809 0v2.2637c0.14383-0.0198 0.29008-0.0391 0.43555-0.0586v-2.2051zm2.584 0v1.918c1.6773-0.19526 3.3296-0.37644 5.1348-0.5332v-1.3848zm6.1934 0v1.3027c0.39603-0.0326 0.792-0.0628 1.1914-0.0937v-1.209zm3.3418 0v1.041c14.451-1.0032 29.938-1.041 29.938-1.041z" stroke-width="1.5825"/>
  </g>
 </g>
</svg>
